<svg xmlns="http://www.w3.org/2000/svg" width="87" height="87" viewBox="0 0 87 87">
  <g fill="none" fill-rule="evenodd">
    <circle cx="43.5" cy="43.5" r="42" stroke="#444" stroke-width="3"/>
    <path fill="#444" fill-rule="nonzero" d="M32.1461116,50.7283545 C31.9304429,51.7809741 34.093467,58.7467448 27.0145139,64.296224 C28.8036246,64.4642739 29.6754661,62.6439208 36.2862956,65.6491021 C42.9561436,68.6811124 45.1203053,71.4320351 50.2795909,69.1674445 C51.1430339,68.7884492 46.3785807,63.359375 46.3785807,61.1673177 C46.3785807,58.9752604 47.3438867,56.3321105 47.8708553,55.8133642 C48.3978867,55.2946998 49.956107,52.404171 50.2795909,51.6504508 C50.6047928,50.8970118 51.6324341,49.7749422 52.7048573,49.8686087 C53.7772804,49.9622751 58.0557381,50.6475742 58.5368313,50.7394309 C59.0179954,50.8313013 61.3408677,50.7528684 61.0224096,48.0939069 C60.998287,47.9024635 60.8735838,46.2021249 61.4503764,46.0407663 C62.0263128,45.8792658 62.4536688,45.1558816 61.9205182,44.3035082 C61.7769718,44.0729397 61.0771284,44.2061351 61.6816759,43.874304 C62.2862288,43.5423991 62.8515029,42.7888182 62.3765344,42.1603041 C61.9024221,41.531932 61.8174505,41.0616648 62.3732565,40.6950213 C62.9290462,40.3284516 64.8321162,39.2821973 63.5832841,37.8825923 C63.277659,37.5397831 60.8100513,35.4547438 60.4890789,33.3865991 C60.4131498,32.8937424 61.3188667,27.878345 57.8413347,23.5886581 C57.664525,23.3704722 56.7030421,22.5840148 57.3084241,21.9566328 C57.9128079,21.3299714 57.8827897,19.2887492 54.5942214,18.5907847 C54.0301773,18.4710462 41.7716541,13.7378838 34.093467,21.1934883 C33.7098621,21.565917 31.3894672,23.5747444 30.5699274,26.3838932 C30.3579442,27.1102471 30.3381111,28.3010939 29.6754661,27.5482158 C29.0128347,26.7952668 25.473296,26.641342 23.6299694,30.1704269 C23.132944,31.1244151 21.9742335,35.4028229 25.0647191,37.1974352 C25.6109386,37.5142866 26.9216314,37.7631674 27.0145139,38.823023 C27.0145139,38.823023 27.3860425,44.1966827 30.7297945,46.8742131 C30.7297946,46.8742132 32.4970572,49.0154847 32.1461116,50.7283545 Z"/>
  </g>
</svg>
