<svg xmlns="http://www.w3.org/2000/svg" width="87" height="87" viewBox="0 0 87 87">
  <g fill="none" fill-rule="evenodd" transform="matrix(-1 0 0 1 87 0)">
    <circle cx="43.5" cy="43.5" r="42" stroke="#444" stroke-width="3"/>
    <path fill="#444" fill-rule="nonzero" d="M27.9688611,21.6213449 L27.9012248,21.695888 C27.9381173,21.8014907 27.9750099,21.9008814 28.0180512,22.0002722 C28.0610925,22.099663 28.0180512,22.0313318 28.0180512,22.0499676 C28.0185152,22.5779424 28.2085917,23.0878127 28.5529933,23.4849218 C28.8748291,23.9357541 29.2415734,24.3520593 29.6474726,24.7273064 L29.6474726,24.764578 C28.4142521,24.8851794 27.2209105,24.2847905 26.5730926,23.2178091 C26.4420705,23.8326554 26.5985593,24.4742053 26.9973571,24.9571476 C27.4744689,25.6192775 28.1235049,26.1352407 28.8727289,26.4480091 L28.8296875,26.5163403 C28.2775472,27.4458731 27.9275149,28.4834644 27.8028446,29.5601826 C28.2314571,28.703003 29.0198449,28.08681 29.9487619,27.8829634 C29.7127636,27.9632852 29.5340296,28.1602707 29.4753074,28.4047649 C29.3927976,28.7762518 29.4834424,29.1654498 29.7212578,29.4607918 C29.9543241,29.7542644 30.232507,30.0080399 30.5451916,30.2124345 C30.7406542,30.3612396 30.9461068,30.4961556 31.1600676,30.6162095 C30.9280151,30.9619567 30.7438933,31.338163 30.612828,31.7343557 C30.5251212,32.1484529 30.4940878,32.5727525 30.5205966,32.995376 L30.5205966,35.2503041 C30.2254023,36.9078808 29.4207642,38.4293584 28.2209603,39.5986503 C27.9244807,39.8346979 27.6635087,40.1129981 27.4462165,40.424836 C27.2384418,40.7545538 27.2384418,41.1759929 27.4462165,41.5057107 C27.6921669,41.8349426 28.1471752,41.884638 28.5406958,41.9964526 C29.2681392,42.2069466 29.8830156,42.7007725 30.2500511,43.3692876 L30.2869437,43.4376187 C30.2488964,43.8537906 30.0858435,44.2482704 29.8196379,44.5681887 C29.7361577,44.6432637 29.6745104,44.7399059 29.6413239,44.8477253 C29.6353062,45.0016971 29.6986029,45.1501451 29.8134892,45.2515003 C30.0958466,45.5679198 30.4335222,45.8290426 30.8095883,46.0217787 C30.4299694,46.4250728 30.3621378,47.0342138 30.6435718,47.5126403 C30.9510098,47.9785345 31.584332,48.2332233 31.7011585,48.7550249 C31.7064052,49.1419692 31.6439582,49.5268084 31.5166957,49.8918068 C31.4576936,50.642062 31.8438428,51.3564618 32.5004973,51.7119003 C33.1503648,52.0494412 33.8816951,52.1937632 34.609522,52.1280991 C35.3350757,52.1280991 36.0544806,51.9790129 36.786183,51.9852249 C37.4976616,52.0916932 38.223539,52.0408261 38.913654,51.8361387 C39.2051658,52.2694229 39.35366,52.7847078 39.3379184,53.3083645 C39.2933981,53.9247763 39.3728793,54.5439131 39.5715713,55.1284579 C39.7598148,55.4499864 39.965071,55.7610335 40.1864473,56.0602464 C40.3003135,56.2658877 36.6658228,59.7290533 34.6402658,62.83125 C32.7520438,65.7231143 32.4653318,69.7793316 32.5004973,69.9960938 C38.913654,72 43.5938776,67.3452044 47.2021825,65.9289063 C49.3848924,65.0721693 51.1169561,64.5130432 58.4667109,66.9789063 C58.411372,66.5751313 56.0994383,58.521043 56.0563969,58.117268 C55.8657854,56.3717177 55.3615871,49.4072768 56.4499176,48.0344418 C56.6686826,47.8047133 56.8549132,47.5454931 57.003306,47.2641633 C57.1493894,46.9697546 57.081268,46.6129039 56.8372895,46.3944941 C58.3498844,44.058811 59.9116695,41.6237372 60.3051901,38.8594314 C60.3974215,38.2382391 60.4281653,37.6170468 60.4650579,36.9958545 L60.7540496,31.3430045 C60.8975165,29.8747972 60.8291668,28.3933226 60.5511405,26.944963 L60.6064794,26.8455722 C60.8475617,26.3873064 60.9821401,25.8795775 61,25.3609226 C60.9857047,24.908231 60.8898575,24.4619625 60.717157,24.0439949 C60.5338514,23.5121586 60.2544805,23.0192904 59.8932232,22.5904049 C59.5274773,22.1600343 59.0215659,21.8758404 58.4667109,21.7890668 C59.486144,22.1207765 60.1606143,23.0996516 60.1145786,24.1806572 C60.1069058,24.2940158 60.0883728,24.4063559 60.0592397,24.5161011 C59.5928427,23.4658622 58.7800292,22.6117649 57.7596035,22.099663 C57.8137142,20.8717175 57.14595,19.727049 56.0563969,19.1800591 C55.9346412,19.1090413 55.784632,19.1090413 55.6628763,19.1800591 C55.6061347,19.2338445 55.5656298,19.302764 55.5460499,19.3788407 L55.4784135,19.5714103 C55.3005588,19.4288091 55.0883324,19.3366143 54.8635375,19.3042976 C54.9761166,18.3589431 54.6331128,17.4163888 53.9412235,16.769833 C53.2456585,16.132547 52.2905532,15.869388 51.3710418,16.0616738 C52.1861262,16.0939458 52.9201138,16.5692839 53.2894549,17.3040584 C53.5120518,17.9044139 53.3315648,18.5813238 52.8405954,18.9874895 C52.3199126,18.0106127 51.5062282,17.22554 50.5163642,16.7449853 C50.2655322,16.6212682 49.9773899,16.5990467 49.7108766,16.6828661 C49.5814132,16.7307 49.4777578,16.8312207 49.4251539,16.9599477 C49.3725501,17.0886748 49.3758255,17.2337947 49.4341824,17.3599657 C48.845668,16.7439659 48.0483386,16.3756014 47.2021825,16.3287865 C47.1190514,16.3111959 47.0332145,16.3111959 46.9500833,16.3287865 C46.6303478,16.446813 46.6426453,16.9064953 46.7225792,17.2419391 C46.1900737,16.8523604 45.5292761,16.685464 44.8779512,16.7760449 C44.4533491,16.7955476 44.0798983,17.0657338 43.9248934,17.4655684 C43.9049986,17.5618507 43.9049986,17.6612464 43.9248934,17.7575288 L39.5777201,17.6022307 C39.2753224,17.571735 38.9699438,17.6034318 38.6800011,17.6954095 C38.4545996,17.8031466 38.2471604,17.9456542 38.0651251,18.1178203 C37.0949251,18.9982204 35.9146164,19.6083524 34.6402658,19.8882184 C33.3458488,20.1535952 32.0121173,19.6757823 31.1723651,18.6458338 C31.3311425,19.3173582 31.6194904,19.9506408 32.020894,20.5094107 C31.6887051,20.4871924 31.363473,20.4029429 31.0616874,20.2609338 C29.9085007,19.7405329 29.0373149,18.7379047 28.6759685,17.5152638 C28.4893524,18.4339972 28.7144399,19.3890759 29.2908445,20.1242715 C29.4233873,20.3088768 29.5693087,20.4832897 29.7274065,20.646073 C29.1707136,20.6523794 28.6141787,20.6233332 28.0610925,20.5591061 C27.2198959,20.3736004 26.5270184,19.7739379 26.2161861,18.9626418 C26.3760524,20.0696564 27.0193859,21.0457098 27.9688611,21.6213449 Z M31.6027783,28.4917318 C31.7253076,28.4767691 31.8491746,28.4767691 31.9717039,28.4917318 C31.9097255,29.0316122 31.7513977,29.5556727 31.5043982,30.0385007 L31.3691254,30.2869776 C31.2416529,30.1214612 31.1362244,29.9397652 31.0555387,29.7465403 C30.9351899,29.5060713 30.9109735,29.2280577 30.9879023,28.9700499 C31.1001609,28.7162606 31.331222,28.5365158 31.6027783,28.4917318 Z"/>
  </g>
</svg>
