<svg xmlns="http://www.w3.org/2000/svg" width="145" height="145" viewBox="0 0 145 145">
  <g fill="none" fill-rule="evenodd">
    <circle cx="72.5" cy="72.5" r="71" stroke="#6C3142" stroke-width="3"/>
    <path fill="#6C3142" fill-rule="nonzero" d="M49.8981412,111.176269 C47.7491487,110.637693 61.3220635,100.688848 62.4338901,99.5537218 C63.5457166,98.4185959 63.1426318,96.3428861 62.6344774,95.5861354 C62.1282333,94.8311696 58.9952513,90.5833714 58.3896687,89.2608426 C57.7821759,87.9400986 51.1093062,84.8274263 49.1913098,84.2580785 C47.2675824,83.6923004 43.4258587,82.0859901 46.2589151,78.3093762 C46.8740493,77.4865884 46.7632488,76.042694 46.2589151,75.3805372 C45.752671,74.7183804 46.2589151,73.7760117 47.0669952,73.2084488 C47.8750753,72.6426706 47.7738265,72.0751076 46.6639103,71.6021385 C45.5520837,71.1309542 45.2483373,70.2813945 45.2483373,69.3354563 C45.2483373,68.3930876 45.0458397,68.2038999 43.9340131,68.296709 C42.8221866,68.3913028 39.6892045,68.1075213 41.6091112,63.9525321 C42.2949286,62.4675875 44.4402572,58.002045 45.0458397,56.9615129 C45.6533325,55.9227656 46.0564174,55.2623936 45.0458397,54.2236463 C44.0352619,53.184899 42.6196889,51.7677764 44.541506,49.1245036 C45.2349648,48.1696414 45.2139509,44.1806376 48.9219498,38.2944029 C48.9219498,38.2944029 49.5275323,37.85356 48.3813194,37.285997 C47.2351064,36.7202189 45.6189462,35.711813 47.2351064,33.823506 C48.8550874,31.9351991 53.2355312,28.2210528 55.5909988,26.6468688 C57.9521975,25.0726847 61.3870156,25.2618724 63.8150767,25.1976199 C66.2431378,25.1351523 72.7096892,24.1267464 76.0146032,24.0018112 C79.3176068,23.8750912 93.1982456,30.4252674 96.1650268,35.0193148 C99.1318079,39.6151469 100.140475,42.9544875 100.207338,45.7244803 C100.276111,48.4944731 102.566626,52.0194317 101.217916,54.412834 C99.8711153,56.8062362 97.9836846,59.6404815 97.2424669,62.4729419 C96.5012492,65.3054023 96.9062445,67.763057 95.2900842,70.4063298 C93.6720136,73.0513873 91.4483605,75.5750792 91.8514454,79.2196187 C92.6595255,86.5247608 102.551943,103.784044 105.383089,107.435722 C108.214235,111.090971 101.562241,99.7292501 79.9920929,104.807981 C68.8316755,107.435722 62.6344774,114.368224 49.8981412,111.176269 Z" transform="matrix(-1 0 0 1 147 0)"/>
  </g>
</svg>
