<svg height='100px' width='100px'  fill="#000000" xmlns="http://www.w3.org/2000/svg" xmlns:xlink="http://www.w3.org/1999/xlink" version="1.1" x="0px" y="0px" viewBox="0 0 100 100" enable-background="new 0 0 100 100" xml:space="preserve"><g><path d="M34.357,43.514c1.401,3.768,3.618,7.424,6.359,10.105c1.552,1.517,3.269,2.714,5.103,3.443   c1.26,0.499,2.575,0.775,3.926,0.775c1.351,0,2.665-0.274,3.927-0.775c1.897-0.755,3.676-2.01,5.269-3.605   c2.675-2.667,4.832-6.27,6.209-9.974c1.056-0.309,2.163-2.289,2.616-4.815c0.488-2.743,0.028-5.131-1.03-5.533   c0.036-0.671,0.062-1.346,0.062-2.041c-0.029-9.937-5.855-15.713-15.043-16.33c-8.008-0.537-14.044,2.646-16.791,7.936   c-0.924,1.779-1.455,4.007-1.658,6.421c-0.309,1.261-0.487,2.568-0.487,3.923h0.03c0,0.011-0.001,0.021-0.003,0.033   c-0.019,0.001-0.039,0.004-0.057,0.007c-1.174,0.206-1.706,2.706-1.191,5.583C32.062,41.315,33.256,43.361,34.357,43.514z    M34.616,36.111c0.116-0.338,0.267-0.603,0.463-0.743c0.034-0.016,0.067-0.021,0.09-0.038c0.059-0.032,0.117-0.067,0.179-0.076   h0.003c0.217-0.038,0.445,0.045,0.667,0.225c0,0,0,0,0.002,0c0-0.017,0.003-0.034,0.003-0.052c0.06-0.606,0.73-5.026,4.349-6.351   c0.042-0.017,0.094-0.023,0.137-0.038c0.239-0.081,0.483-0.157,0.748-0.208c0.629-0.123,1.334-0.162,2.118-0.09   c0,0,5.503,2.025,10.514,0.234c0.54-0.012,1.065-0.016,1.549,0.002c2.073,0.079,3.497,1.152,4.981,1.845h0.004   c-0.057-0.682-0.578-1.379-0.555-1.845c0,0,0,0,0-0.002c0.238,0.07,0.453,0.171,0.659,0.281c1.072,1.144,2.109,3.058,2.934,6.184   c0,0.016,0,0.027,0.003,0.039c0.003,0,0.003-0.001,0.004-0.005c0-0.002,0,0,0.006-0.002v0.002v0.003l0.011-0.016   c0.097-0.074,0.19-0.124,0.287-0.161c0.123-0.048,0.245-0.072,0.364-0.052c0.054,0.01,0.106,0.028,0.157,0.051   c0.687,0.32,0.98,1.92,0.652,3.745c-0.251,1.398-0.797,2.549-1.375,3.045c-0.115,0.097-0.236,0.169-0.351,0.21   c-0.02,0.006-0.036,0.007-0.056,0.011l-0.153,0.016c-0.014,0-0.028,0.001-0.043,0.001c-0.034,0-0.065,0.014-0.098,0.009   c-0.126-0.02-0.244-0.084-0.349-0.185c0,0,0,0,0,0.003c-1.269,3.952-3.687,7.888-6.744,10.279c-0.895,0.7-1.846,1.262-2.836,1.662   c-0.017,0.008-0.035,0.012-0.054,0.019L51.76,54.46c-0.03,0.009-0.061,0.018-0.092,0.024c-0.111,0.027-0.216,0.075-0.331,0.097   c-0.035,0.007-0.072,0.008-0.108,0.012l-0.438,0.045c-0.035,0.003-0.071,0.005-0.107,0.009c-0.313,0.037-0.625,0.095-0.945,0.095   c-2.118,0-4.121-0.842-5.914-2.211c-3.111-2.383-5.576-6.369-6.865-10.373h-0.001c-0.106,0.097-0.219,0.16-0.343,0.183h-0.003   c-0.262,0.044-0.542-0.087-0.807-0.352c-0.541-0.54-1.034-1.632-1.267-2.94c-0.016-0.085-0.023-0.172-0.037-0.257   C34.516,37.876,34.553,36.987,34.616,36.111z"></path><path d="M78.252,62.512c-3.186-3.571-6.396-3.854-7.366-4.079c-2.976-0.695-6.577-0.402-8.501-1   c-0.228,1.889-5.71,8.09-9.304,11.984l-1.557-6.01c1.17-0.69,1.426-2.214,1.426-3.479h-5.907c0,1.255,0.255,2.765,1.402,3.463   l-1.532,6.021c-3.596-3.89-9.08-10.094-9.303-11.979c-1.923,0.6-5.525,0.305-8.502,0.998c-0.997,0.234-4.397,0.536-7.687,4.458   c-1.021,1.217-2.03,2.787-2.955,4.809C24.673,78.714,36.478,86.176,50,86.176c13.523,0,25.33-7.462,31.536-18.482   C80.515,65.453,79.387,63.776,78.252,62.512z"></path><path d="M50,5C25.188,5,5,25.187,5,50c0,24.812,20.188,45,45,45c24.814,0,45-20.188,45-45C95,25.187,74.814,5,50,5z M50,89.706   C28.072,89.706,10.294,71.93,10.294,50c0-21.93,17.778-39.707,39.706-39.707c21.93,0,39.706,17.776,39.706,39.707   C89.706,71.93,71.93,89.706,50,89.706z"></path></g></svg>