<svg xmlns="http://www.w3.org/2000/svg" width="735" height="959" viewBox="0 0 735 959">
  <g fill="none" fill-rule="evenodd">
    <path fill="#FFF" d="M43.914144,3.606104 L688.388904,3.606104 C712.307004,3.606104 731.696952,22.99952 731.696952,46.922464 L731.696952,915.380588 C731.696952,939.303532 712.307004,958.696948 688.388904,958.696948 L43.914144,958.696948 C19.995312,958.696948 0.605364,939.303532 0.605364,915.380588 L0.605364,46.922464 C0.605364,22.99952 19.995312,3.606104 43.914144,3.606104 Z"/>
    <path fill="#DBDBDB" d="M688.388904 3.606104C712.307004 3.606104 731.696952 22.99952 731.696952 46.922464L731.696952 915.380588C731.696952 939.303532 712.307004 958.696948 688.388904 958.696948L43.914144 958.696948C19.995312 958.696948.605364 939.303532.605364 915.380588L.605364 46.922464C.605364 22.99952 19.995312 3.606104 43.914144 3.606104L688.388904 3.606104zM686.874396 6.634712L45.42792 6.634712C22.345764 6.634712 3.63438 25.350324 3.63438 48.436768L3.63438 48.436768 3.63438 913.865328C3.63438 936.952728 22.345764 955.667384 45.42792 955.667384L45.42792 955.667384 686.874396 955.667384C709.956552 955.667384 728.668668 936.952728 728.668668 913.865328L728.668668 913.865328 728.668668 48.436768C728.668668 25.350324 709.956552 6.634712 686.874396 6.634712L686.874396 6.634712zM732.428535 111.608615L733.071423 111.608615C734.018166 111.608615 734.785659 112.698795 734.785659 114.04346L734.785659 143.260795C734.785659 144.605565 734.018166 145.695605 733.071423 145.695605L732.428535 145.695605 732.428535 111.608615zM732.428535 69.60865L733.071423 69.60865C734.018166 69.60865 734.785659 70.698725 734.785659 72.04346L734.785659 101.26083C734.785659 102.605495 734.018166 103.69564 733.071423 103.69564L732.428535 103.69564 732.428535 69.60865zM647.992672.428562L683.306546.428562C684.628755.428562 685.700618 1.196058 685.700618 2.142813L685.700618 2.785713 645.598477 2.785713 645.598477 2.142813C645.598477 1.196058 646.67034.428562 647.992672.428562z"/>
    <path fill="#DEDEDE" d="M365.657135,13.628507 C368.43425,13.628507 370.685675,15.87991 370.685675,18.657069 C370.685675,21.434305 368.43425,23.685631 365.657135,23.685631 C362.87991,23.685631 360.628474,21.434305 360.628474,18.657069 C360.628474,15.87991 362.87991,13.628507 365.657135,13.628507 Z"/>
    <path fill="#DBDBDB" d="M339.584968 12.406224C342.945234 12.406224 345.669319 15.156153 345.669319 18.548295 345.669319 21.940515 342.945234 24.690444 339.584968 24.690444 336.224702 24.690444 333.500617 21.940515 333.500617 18.548295 333.500617 15.156153 336.224702 12.406224 339.584968 12.406224zM403.564545 12.590889C406.955569 12.590889 409.704497 15.302637 409.704497 18.647654 409.704497 21.992762 406.955569 24.70451 403.564545 24.70451 400.173612 24.70451 397.424684 21.992762 397.424684 18.647654 397.424684 15.302637 400.173612 12.590889 403.564545 12.590889zM382.414725 17.323793C383.021877 17.323793 383.514138 17.808458 383.514138 18.406184 383.514138 19.003994 383.021877 19.488578 382.414725 19.488578 381.80757 19.488578 381.315312 19.003994 381.315312 18.406184 381.315312 17.808458 381.80757 17.323793 382.414725 17.323793zM319.1194 14.39764C321.62195 14.39764 323.65065 16.45815 323.65065 18.99993 323.65065 21.54171 321.62195 23.60222 319.1194 23.60222 316.61685 23.60222 314.58815 21.54171 314.58815 18.99993 314.58815 16.45815 316.61685 14.39764 319.1194 14.39764z"/>
    <path stroke="#D9D9D9" d="M45.726144,33.105475 L686.576256,33.105475 C695.203578,33.105475 702.1976,40.109094 702.1976,48.747732 L702.1976,914.555454 C702.1976,923.19393 695.20374,930.196814 686.576256,930.196814 L45.726144,930.196814 C37.0986604,930.196814 30.1048,923.19393 30.1048,914.555454 L30.1048,48.747732 C30.1048,40.109094 37.0988221,33.105475 45.726144,33.105475 Z"/>
  </g>
</svg>
