<svg xmlns="http://www.w3.org/2000/svg" width="1983" height="1180" viewBox="0 0 1983 1180">
  <defs>
    <style>
      .cls-1 {
        fill: #9d9d80;
      }

      .cls-1, .cls-2, .cls-3, .cls-4, .cls-5 {
        fill-rule: evenodd;
      }

      .cls-2 {
        fill: #8e8e6d;
      }

      .cls-3 {
        fill: #c1c18b;
      }

      .cls-4 {
        fill: #98c8dc;
      }

      .cls-5 {
        fill: #486976;
      }
    </style>
  </defs>
  <path class="cls-1" d="M-26.086,726.327c78.142-64.86,242.643-80.887,506.038,11.158C599.666,779.32,721.265,841.994,884,842c51.722,0,100.414-6.547,150-23,65.12-21.605,136.84-62.915,207.01-139.331,41.58-45.28,67.71-91.02,81.99-126.669,21.18-52.877,31.19-110.815,28-167-2.68-47.226-22.9-83.245-17-138,6.5-60.355,41.51-143.367,119-182,20.95-10.446,92.9-21.76,174.04-4.051,57.9,12.636,115.41,31.207,156.01,59.845,228.43,161.112,217.97,692.211-4,995.046-429.87,586.47-1720.436,404.49-1886.142-27.39C-153.155,969.4-121.749,805.731-26.086,726.327Z"/>
  <path class="cls-2" d="M-33.992,720.173c85.246-73.385,245.844,1.21,480.073,84.043,333.73,118.02,541.968,143.965,704.109,64.8,75.44-36.831,138.59-91.09,181.03-155.935,61.63-94.18,84.05-212.45,72.01-314.909-7.79-66.213-27.17-111.532-12.01-184.287,13.76-65.98,40.33-107.918,72.02-133.659,92.34-75.015,251.28-37.472,343.05,31.39,221.06,165.883,209.1,635.074,19,904.22C1420.09,1589.56,99.569,1416.6-67,982.428-99.948,896.537-97.823,775.123-33.992,720.173Z"/>
  <path class="cls-3" d="M-67.407,705.63c19.881-45.263,148.255-25.136,197.933-15.176C306.213,725.679,467.348,859.939,543.519,895.6,693.984,966.035,873.1,983.515,931.3,985.031c49.494,1.289,103.41-6.617,156.13-15.8,53.15-9.265,108.63-23.265,136.57-35.226,93.44-40,193.83-120.654,244-239,57.8-136.348,32.31-277.113,2.41-358.063C1452.3,287.926,1424.68,236.756,1441,174c13.13-50.492,53.76-94.742,118-131,47.32-26.708,149.33-66.419,246.37-23.05,75.96,33.952,152.43,156.793,173.97,401.292,11.43,129.694,4.92,394.554-153.98,595.758C1398.96,1556.91,292.81,1127.77,2.549,830.542-51.3,775.4-79.008,732.044-67.407,705.63Z"/>
  <path class="cls-4" d="M-130,951.027V859.82c25.97-29.174,114.445-55.806,153.023-63.8,117.487-24.332,294.135-2.516,397.864,59.133,29.008,17.24,55.232,41.342,80.5,63.5,44.625,39.146,81.971,78.081,107.449,132.2,9.513,20.21,25.466,43.22,18.27,66.91-77.6,132.41-184.566,143.05-329.356,153.18-146.9,10.27-290.573,7.33-427.746-55.02V869.383"/>
  <path class="cls-5" d="M-46,921.4v-2.109l61.313-9.867c70.089-11.708,140.165-20.572,210.856-27.68,198.544-19.963,380.2-74.816,560.168,45.293C848.627,968.61,980.869,1073.38,955.25,1161.98c-40.981,141.72-288.4,143.38-402.563,157.39L442.566,1331.1c-78.2,11.69-173.436,33.39-252,13.96-43.684-10.81-73.454-41.07-104.3-71.31-45.49-44.61-101.116-88.6-130.828-146.6Q-45.279,1016.825-46,906.473"/>
</svg>
