<?xml version="1.0" encoding="UTF-8"?>
<svg fill="#FFFFFF" width="100pt" height="100pt" version="1.1" viewBox="0 0 100 100" xmlns="http://www.w3.org/2000/svg">
 <path d="m39.738 43.789c-0.25 0-0.38281-0.10547-0.44922-0.19141-0.10547-0.13672-0.125-0.32812-0.058593-0.5625l0.046875-0.17188c0.30859-1.1133 0.44531-1.6211 2.0312-2.5703 0.42578-0.25781 0.87891-0.39453 1.3086-0.39453 0.59375 0 1.0703 0.27344 1.2148 0.69531 0.070313 0.21484 0.15234 0.77734-0.67188 1.4062-0.94141 0.72266-2.6289 1.7891-3.4219 1.7891zm-0.042969-0.5h0.042969c0.5 0 1.8984-0.75781 3.1172-1.6836 0.39062-0.30078 0.57812-0.61328 0.5-0.84766-0.070313-0.21484-0.37109-0.35547-0.73828-0.35547-0.23438 0-0.60938 0.054687-1.0508 0.32031-1.4102 0.84766-1.5117 1.207-1.8047 2.2734l-0.046875 0.17188c-0.019532 0.0625-0.019532 0.10156-0.019532 0.12109z"/>
 <path d="m36.449 46.059c-0.32422 0-0.55078-0.09375-0.67969-0.28125-0.14453-0.21094-0.14062-0.49609 0.011719-0.87891 0.71484-1.8203 2.5547-4.1328 2.6289-4.2305 1.3633-1.4453 3.6758-2.9219 5.2109-2.9219 0.97266 0 2.1484 0.41016 2.5156 1.1914 0.14453 0.30859 0.21484 0.79688-0.26953 1.375-0.12891 0.15234-0.26563 0.32031-0.41406 0.50781-1.0859 1.3398-2.7227 3.3633-4.6523 3.9336-0.47656 0.14062-1.0312 0.33984-1.5625 0.53125-1.0977 0.39844-2.1367 0.77344-2.7891 0.77344zm7.1758-7.8164c-1.3828 0-3.5859 1.4297-4.8359 2.75-0.003906 0.007812-1.8555 2.332-2.543 4.082-0.09375 0.23828-0.09375 0.37109-0.0625 0.41406 0.019531 0.03125 0.10156 0.0625 0.26562 0.0625 0.5625 0 1.6055-0.375 2.6172-0.73828 0.53906-0.19531 1.0977-0.39453 1.5898-0.54297 1.7812-0.52734 3.3633-2.4805 4.4062-3.7695 0.15234-0.1875 0.29297-0.35938 0.42188-0.51562 0.25781-0.30469 0.32031-0.58203 0.19922-0.84375-0.23047-0.49219-1.1562-0.89844-2.0586-0.89844z"/>
 <path d="m33.953 49.449c-0.39844 0-0.69922-0.125-0.89453-0.37109-0.27344-0.34375-0.3125-0.90625-0.11719-1.7148l0.015625-0.070312c0.85938-3.5859 1.2148-5.0703 4.3906-7.6875 3.7344-3.0742 5.75-4.0625 8.6328-4.2227 1.1133-0.0625 1.9219 0.39453 2.293 1.2656 0.67969 1.5938-0.33203 4.1289-2.5742 6.4648-3.4648 3.6094-4.1836 3.8164-6.0977 4.3672-0.19141 0.054687-0.39453 0.11328-0.60937 0.17969-0.55859 0.16797-1.2188 0.46094-1.9219 0.76953-1.1328 0.5-2.3047 1.0195-3.1172 1.0195zm12.223-13.566c-0.054687 0-0.10938 0-0.16406 0.003907-2.7578 0.15234-4.707 1.1133-8.3438 4.1055-3.0469 2.5078-3.3672 3.8438-4.2188 7.418l-0.015625 0.070313c-0.19141 0.79688-0.09375 1.1406 0.023437 1.2891 0.09375 0.12109 0.25781 0.17969 0.5 0.17969 0.70703 0 1.8281-0.49609 2.918-0.97656 0.71484-0.31641 1.3906-0.61328 1.9766-0.78906 0.22266-0.066406 0.42578-0.125 0.61719-0.17969 1.8203-0.52344 2.5-0.71875 5.875-4.2305 2.5547-2.6602 2.9297-4.8516 2.4727-5.9219-0.26953-0.63281-0.83594-0.96875-1.6406-0.96875z"/>
 <path d="m30.219 54.352c-0.26953 0-0.48438-0.089843-0.64453-0.26953-0.30078-0.33594-0.375-0.96875-0.25-2.0547 0.51172-4.3789 2.9609-9.0195 5.1641-11.68 1.9961-2.4062 4.4727-4.875 9.0508-6.5977 2.1953-0.82422 4.6719-1.6719 6.4102-1.6719 0.95312 0 1.6211 0.26172 1.9844 0.77734 0.4375 0.62109 0.42188 1.5547-0.046875 2.8555-2.0391 5.6758-6.4727 12.477-12.809 14.535-2.4336 0.78906-4.4766 1.9609-5.9688 2.8125-1.3047 0.75391-2.2461 1.293-2.8906 1.293zm19.727-21.77c-1.6562 0-4.082 0.82812-6.2344 1.6367-4.4688 1.6797-6.8867 4.0938-8.8398 6.4453-2.1562 2.6016-4.5547 7.1406-5.0508 11.418-0.10547 0.89062-0.0625 1.4492 0.125 1.6602 0.042969 0.046874 0.10938 0.10156 0.26953 0.10156 0.51172 0 1.4531-0.53906 2.6445-1.2188 1.5117-0.86328 3.582-2.0469 6.0625-2.8555 6.168-2.0078 10.586-8.9219 12.492-14.23 0.40234-1.1211 0.4375-1.9297 0.10547-2.3984-0.26172-0.36719-0.78906-0.55859-1.5742-0.55859z"/>
 <path d="m21.785 65.238c-0.050781 0-0.10156-0.015625-0.14453-0.046875-0.11328-0.078125-0.14062-0.23438-0.058594-0.34766 2.7695-3.9102 6.2656-6.9375 10.395-9.0039 2.1953-1.0977 4.0234-1.9141 5.6367-2.6367 3.082-1.3789 5.3125-2.375 7.5156-4.1992 3.4375-2.8477 7.3438-7.6406 8.3203-11.934 0.28125-1.2383 0.47266-2.2344 0.64062-3.1172 0.43359-2.2891 0.67188-3.5469 1.8438-5.0703 0.60547-0.78516 1.5-2.1602 2.4453-3.6172 0.89453-1.3711 1.8125-2.7852 2.6094-3.8906 0.082031-0.11328 0.23438-0.13672 0.35156-0.058594 0.10938 0.082032 0.13672 0.23828 0.058594 0.34766-0.78516 1.0938-1.707 2.5078-2.5977 3.8711-0.95312 1.4648-1.8516 2.8477-2.4688 3.6484-1.1016 1.4297-1.3281 2.6484-1.7461 4.8594-0.16797 0.88672-0.35547 1.8906-0.64063 3.1367-1.0742 4.7109-5.2461 9.5195-8.4922 12.203-2.2578 1.8672-4.5117 2.875-7.6328 4.2695-1.6094 0.71875-3.4336 1.5352-5.6172 2.6289-4.0547 2.0273-7.4922 5.0039-10.211 8.8438-0.054688 0.078125-0.12891 0.11328-0.20703 0.11328z"/>
 <path d="m21.797 62.133c-0.054687 0-0.10547-0.015624-0.15234-0.050781-0.10938-0.082031-0.13281-0.23828-0.046875-0.35156 0.38672-0.51172 0.73047-0.96484 1.0469-1.3789 1.3203-1.7305 2.1133-2.7734 3.2109-4.5 1.1172-1.7617 1.8281-4.3438 2.5195-6.8438 0.52344-1.8945 1.0156-3.6836 1.6562-4.9961 1.6367-3.3594 4.0312-7.5547 8.0469-10.234 2.1055-1.4023 4.1719-1.8008 6.168-2.1836 1.9805-0.37891 3.8477-0.73828 5.7773-2.0078 2.5-1.6445 4.7148-4.418 6.8555-7.1016 0.28906-0.35938 0.57031-0.71875 0.85547-1.0664 0.085937-0.10938 0.24219-0.125 0.35156-0.035157 0.10547 0.085938 0.125 0.24219 0.035156 0.35156-0.28125 0.34766-0.56641 0.70312-0.85156 1.0625-2.0664 2.5859-4.4062 5.5195-6.9727 7.207-2.0117 1.3203-4.0156 1.707-5.957 2.082-1.9453 0.375-3.9609 0.76172-5.9844 2.1094-3.918 2.6133-6.2656 6.7344-7.875 10.035-0.62109 1.2734-1.1094 3.0391-1.625 4.9102-0.69922 2.5312-1.4219 5.1523-2.5781 6.9766-1.1055 1.7461-1.9062 2.7969-3.2344 4.5352-0.31641 0.41406-0.66016 0.86719-1.0469 1.375-0.050782 0.070312-0.125 0.10547-0.19922 0.10547z"/>
 <path d="m21.832 70.25c-0.046875 0-0.09375-0.011719-0.13281-0.039062-0.11719-0.074219-0.15234-0.23047-0.078125-0.34375 2.3047-3.6641 5.7422-8.4688 9.0234-10.531 1.6641-1.0469 4.4805-2.2812 7.4609-3.5938 5.1641-2.2695 11.016-4.8398 12.902-7.2422 3.3984-4.3398 5.3477-13.387 6.0234-17.07 0.71875-3.9062 3.9648-7.2695 7.0391-10.039 0.10156-0.09375 0.26172-0.085937 0.35156 0.019531 0.09375 0.10156 0.085937 0.26172-0.019531 0.35156-3.0156 2.7188-6.1875 6-6.8828 9.7617-0.85156 4.625-2.7773 13.02-6.125 17.289-1.9648 2.5039-7.8789 5.1016-13.094 7.3945-2.9648 1.3008-5.7617 2.5312-7.3984 3.5586-3.2031 2.0117-6.5898 6.7539-8.8672 10.371-0.039062 0.074219-0.12109 0.11328-0.20312 0.11328z"/>
 <path d="m21.832 74.398c-0.050781 0-0.097656-0.015626-0.14062-0.046876-0.11328-0.078124-0.14062-0.23437-0.0625-0.34766 3.7539-5.4219 7.3633-10.449 10.266-12.461 1.5273-1.0586 4.0586-2.0938 6.9922-3.293 4.9414-2.0195 10.543-4.3125 12.914-7.3984 3.6719-4.7773 5.3164-11.512 6.8086-18.57 0.70312-3.332 3.3086-6.9023 7.9648-10.91 0.10547-0.089844 0.26172-0.078125 0.35156 0.027344 0.089844 0.10547 0.078125 0.26172-0.027343 0.35156-4.5664 3.9336-7.1211 7.4141-7.8008 10.637-1.5078 7.1211-3.168 13.914-6.9023 18.773-2.4531 3.1914-8.1211 5.5117-13.121 7.5547-2.7852 1.1406-5.4141 2.2148-6.8984 3.2383-2.8359 1.9648-6.4141 6.957-10.141 12.336-0.046875 0.070313-0.125 0.10938-0.20312 0.10938z"/>
 <path d="m21.812 58.02c-0.054688 0-0.10547-0.015625-0.15234-0.050781-0.10938-0.085938-0.13281-0.23828-0.046875-0.35156l0.26172-0.34375c2.5-3.2812 3.1719-4.1641 4.3672-8.2734 0.14844-0.51172 0.28906-1.0039 0.42578-1.4805 1.4141-4.9492 2.3516-8.2188 6.2148-12.648 4.3281-4.9688 10.465-5.6562 13.086-5.9492 2-0.22656 6.8633-5.5391 8.6953-7.543 0.09375-0.10156 0.25391-0.10547 0.35547-0.015625 0.10156 0.09375 0.10938 0.25 0.015625 0.35547-3.1758 3.4727-7.0703 7.4844-9.0078 7.6992-2.5625 0.28906-8.5625 0.96094-12.762 5.7812-3.7891 4.3516-4.7148 7.5742-6.1094 12.461-0.13672 0.47656-0.27734 0.97266-0.42578 1.4844-1.2227 4.1953-1.9688 5.1797-4.4492 8.4336l-0.26172 0.34375c-0.054687 0.0625-0.12891 0.097656-0.20703 0.097656z"/>
 <path d="m21.914 78.488c-0.050781 0-0.10547-0.015625-0.14844-0.050781-0.10938-0.082031-0.13672-0.23828-0.054687-0.35156 1.0742-1.4609 2.1133-2.9883 3.1172-4.4648 2.793-4.1055 5.4297-7.9844 8.5312-10.094 2.125-1.4453 4.8711-2.4531 7.7773-3.5195 4.168-1.5273 8.4805-3.1094 10.656-6.0625 0.32812-0.44141 0.64453-0.86719 0.95312-1.2812 3.2109-4.3008 5.3281-7.1445 6.2734-13.48 0.80469-5.3789 6.0742-13.02 10.863-17.789 0.097657-0.097656 0.25781-0.097656 0.35547 0 0.097657 0.097657 0.097657 0.25781 0 0.35547-4.7305 4.7109-9.9375 12.238-10.723 17.508-0.96484 6.4648-3.1133 9.3438-6.3672 13.707-0.30859 0.41016-0.625 0.83594-0.94922 1.2773-2.2695 3.0742-6.6523 4.6797-10.887 6.2344-2.875 1.0547-5.5938 2.0508-7.668 3.4648-3.0234 2.0547-5.6328 5.8945-8.3984 9.9609-1.0078 1.4805-2.0469 3.0117-3.1289 4.4805-0.050782 0.070313-0.125 0.10547-0.20313 0.10547z"/>
 <path d="m47.629 78.762c-0.0625 0-0.12891-0.023438-0.17578-0.070313-0.097656-0.097656-0.097656-0.25391-0.003906-0.35547 1.6094-1.6328 7.8281-7.2188 9.5156-6.5977 0.15234 0.054688 0.41406 0.21094 0.45312 0.64844 0.15234 1.7656-0.52344 4.3242-1.6445 6.2266-0.070313 0.11719-0.22266 0.16016-0.34375 0.089844-0.11719-0.070313-0.15625-0.22266-0.089844-0.34375 1.0742-1.8203 1.7227-4.2578 1.5781-5.9297-0.015625-0.18359-0.089844-0.21094-0.125-0.22266-1.0586-0.37109-6.1953 3.6484-8.9883 6.4805-0.046876 0.046875-0.10938 0.074219-0.17578 0.074219z"/>
 <path d="m53.293 78.73c-0.035157 0-0.070313-0.007813-0.10547-0.023438-0.125-0.058593-0.17969-0.20703-0.11719-0.33203 0.41406-0.87109 0.41797-1.3516 0.28125-1.5078-0.10937-0.13281-0.39453-0.0625-0.50781-0.03125-0.80078 0.23828-1.3359 0.59766-2.7227 1.8281-0.10547 0.089844-0.26172 0.082032-0.35156-0.019531-0.089843-0.10547-0.082031-0.26172 0.023438-0.35547 1.3359-1.1836 1.9766-1.6523 2.9102-1.9336 0.60547-0.17969 0.90625 0.035156 1.0312 0.18359 0.32031 0.375 0.24609 1.082-0.21094 2.0469-0.046876 0.089843-0.13672 0.14453-0.23047 0.14453z"/>
 <path d="m45.652 78.746c-0.0625 0-0.125-0.023438-0.17188-0.066406-0.10156-0.097657-0.10547-0.25391-0.007813-0.35547l0.5-0.52344c3.2031-3.375 5.9727-6.2891 8.8672-7.4844 0.76562-0.3125 1.5898-0.60156 2.3867-0.87891 3.2617-1.1367 6.6328-2.3086 8.0977-5.8984 0.76953-1.8867 1.7422-5.4883 2.7734-9.3086 1.5039-5.5664 3.207-11.875 4.8828-15.223 1.3555-2.707 3.5391-6.3828 5.5039-9.6133 0.070313-0.11719 0.22656-0.15234 0.34375-0.085937 0.11719 0.070312 0.15625 0.22656 0.085937 0.34375-1.957 3.2266-4.1367 6.8867-5.4805 9.5781-1.6523 3.3008-3.3477 9.5859-4.8438 15.129-1.0352 3.832-2.0117 7.4492-2.7969 9.3633-1.5547 3.7969-5.0312 5.0078-8.3984 6.1797-0.82812 0.28906-1.6094 0.55859-2.3594 0.87109-2.7969 1.1523-5.5312 4.0312-8.6953 7.3633l-0.5 0.52344c-0.054688 0.0625-0.12109 0.085938-0.1875 0.085938z"/>
 <path d="m42.23 78.691c-0.0625 0-0.125-0.023437-0.17188-0.070312-0.10156-0.097656-0.10156-0.25391-0.007813-0.35547 4.8359-5.0352 7.957-7.8242 9.832-8.7812 1.0391-0.53125 2.25-0.85547 3.5273-1.1914 2.0195-0.53516 4.1055-1.0898 5.6836-2.5391 2.6055-2.3984 4.7734-8.9375 5.6836-14.004 0.92578-5.1289 5.2148-17.938 9.168-22.641 0.88672-1.0547 1.7422-2.1367 2.5508-3.2148 0.082031-0.10938 0.24219-0.13281 0.35156-0.050781s0.13281 0.23828 0.050782 0.35156c-0.8125 1.0859-1.6758 2.1758-2.5664 3.2383-3.9023 4.6406-8.1445 17.324-9.0586 22.406-0.92578 5.1445-3.1445 11.805-5.8398 14.281-1.6641 1.5312-3.8125 2.1055-5.8906 2.6562-1.2539 0.33203-2.4375 0.64844-3.4297 1.1562-1.7969 0.91797-4.9688 3.7578-9.6953 8.6836-0.054688 0.046874-0.12109 0.074218-0.1875 0.074218z"/>
 <path d="m25.242 78.723c-0.046876 0-0.09375-0.011718-0.13672-0.039062-0.11328-0.074219-0.14844-0.23047-0.074219-0.34766 2.707-4.1523 7.7031-11.355 10.77-12.938 1.0156-0.52344 2.2305-1.0703 3.5195-1.6523 3.4414-1.5508 7.7227-3.4805 11.812-6.4961 5.3203-3.9258 6.8789-8.2969 8.3867-12.527l0.24609-0.6875c0.375-1.043 0.72656-2.1016 1.0938-3.2227 1.1562-3.5078 2.3555-7.1328 4.3281-10.109 1.4922-2.2539 4.6367-6.0859 7.6523-9.3203 0.09375-0.10156 0.25391-0.10547 0.35156-0.011718 0.10156 0.09375 0.10547 0.25391 0.011719 0.35547-2.9961 3.2188-6.1211 7.0234-7.6016 9.2578-1.9336 2.9219-3.1211 6.5156-4.2695 9.9922-0.35547 1.0742-0.72266 2.1836-1.0977 3.2344l-0.24609 0.6875c-1.4609 4.0977-3.1133 8.7422-8.5586 12.762-4.1367 3.0508-8.4414 4.9922-11.906 6.5508-1.2812 0.57812-2.4961 1.125-3.4961 1.6406-3.0664 1.5781-8.418 9.4492-10.574 12.758-0.046875 0.074219-0.12891 0.11328-0.21094 0.11328z"/>
 <path d="m38.059 78.762c-0.066406 0-0.13281-0.027344-0.18359-0.078125-0.09375-0.10156-0.089844-0.25781 0.011719-0.35547l0.23438-0.22266c4.2969-4.0742 9.6484-9.1445 11.73-9.9922 1.2383-0.50391 2.9258-0.96875 4.5586-1.4141 2.0273-0.55859 4.1289-1.1328 4.9258-1.6992 1.332-0.95312 4.8125-7.4297 5.3477-10.938 0.48828-3.2383 1.4375-8.0039 3.1562-12.309 1.6523-4.1289 4.9414-11.664 6.7305-14.297 0.69141-1.0195 2.0156-2.7031 3.9375-5.0117 0.089844-0.10547 0.24609-0.11719 0.35156-0.03125 0.10547 0.089844 0.12109 0.24609 0.03125 0.35156-1.9062 2.293-3.2227 3.9648-3.9062 4.9727-1.7695 2.6016-5.0352 10.09-6.6797 14.199-1.7031 4.2617-2.6406 8.9844-3.1289 12.199-0.52344 3.457-3.9883 10.156-5.5508 11.27-0.86719 0.62109-2.9141 1.1836-5.082 1.7734-1.6172 0.44141-3.2891 0.90234-4.5 1.3945-1.9961 0.8125-7.3086 5.8477-11.578 9.8906l-0.23438 0.22266c-0.046875 0.050781-0.10938 0.074219-0.17188 0.074219z"/>
 <path d="m28.949 78.727c-0.050781 0-0.097657-0.015624-0.14453-0.046874-0.11328-0.078126-0.14063-0.23438-0.0625-0.34766 3.9141-5.6484 8.3008-9.7617 12.68-11.887l1.1758-0.57031c4.2383-2.0469 8.2461-3.9805 11.578-6.9375 3.2695-2.8984 5.8164-7.9023 7.5703-14.879 0.19531-0.77734 0.36719-1.4844 0.52734-2.1367 1.125-4.5742 1.5898-6.4688 3.9102-9.7383 1.5938-2.2422 5.4688-7.3945 8.7305-10.828 0.097657-0.10156 0.25391-0.10547 0.35547-0.007813 0.10156 0.09375 0.10547 0.25391 0.011719 0.35547-3.2422 3.4141-7.0977 8.5391-8.6836 10.773-2.2656 3.1914-2.6914 4.9258-3.832 9.5664-0.16016 0.65234-0.33594 1.3633-0.53125 2.1406-1.7773 7.0742-4.375 12.168-7.7227 15.133-3.3867 3-7.4219 4.9492-11.695 7.0117l-1.1758 0.56641c-3 1.457-7.6016 4.6719-12.488 11.723-0.042969 0.070312-0.12109 0.10937-0.20312 0.10937z"/>
 <path d="m33.586 78.715c-0.054688 0-0.10547-0.015625-0.14844-0.050782-0.10938-0.082031-0.13281-0.23828-0.050781-0.35156 1.6875-2.2383 5.0664-6.3477 8.7812-8.7109 4.6953-2.9883 7.0195-4.0195 11.414-5.8867 4.1406-1.7578 5.957-4.7656 7.8672-9.707 1.1328-2.9258 2.0078-6.3945 2.8516-9.75 0.48438-1.9258 0.94531-3.7461 1.4375-5.4219 1.2656-4.2891 5.6641-11.148 11.207-17.477 0.09375-0.10547 0.25-0.11328 0.35547-0.023437 0.10547 0.089843 0.11328 0.25 0.023438 0.35156-6.2539 7.1406-10.082 13.828-11.105 17.289-0.49219 1.6641-0.94922 3.4805-1.4336 5.4023-0.85156 3.3672-1.7266 6.8516-2.8672 9.8086-1.6523 4.2773-3.4062 7.9805-8.1367 9.9883-4.3711 1.8555-6.6758 2.8789-11.34 5.8477-2.7031 1.7188-5.7734 4.7695-8.6484 8.5898-0.058594 0.066407-0.13281 0.10156-0.20703 0.10156z"/>
 <path d="m58.051 78.742c-0.03125 0-0.0625-0.007813-0.097656-0.019532-0.12891-0.054687-0.1875-0.19922-0.13672-0.32812 0.39062-0.94141 0.61719-1.8125 0.83594-2.6562 0.35547-1.3711 0.69141-2.6719 1.6758-3.957 0.93359-1.2227 2.1406-1.9766 3.3086-2.6992 1.5117-0.94141 2.9375-1.8281 3.6797-3.6562 0.50391-1.2344 1.1445-3.5781 1.8906-6.2891 1.2773-4.6523 2.8672-10.445 4.7188-14.309 0.91406-1.9141 1.707-3.8281 2.4727-5.6797 0.70312-1.6992 1.3672-3.3086 2.0781-4.7969 0.0625-0.125 0.21094-0.17578 0.33203-0.11719 0.125 0.058594 0.17969 0.20703 0.11719 0.33203-0.70703 1.4805-1.3672 3.0781-2.0664 4.7734-0.76953 1.8555-1.5625 3.7773-2.4805 5.7031-1.8281 3.8242-3.4141 9.5898-4.6875 14.227-0.75 2.7266-1.3945 5.082-1.9062 6.3438-0.80469 1.9805-2.3672 2.9531-3.8789 3.8945-1.1289 0.70313-2.2969 1.4297-3.1719 2.5781-0.92188 1.207-1.2305 2.3984-1.5898 3.7812-0.22266 0.85937-0.45312 1.7461-0.85547 2.7227-0.046874 0.09375-0.14062 0.15234-0.23828 0.15234z"/>
 <path d="m59.777 78.73c-0.023438 0-0.046875-0.003907-0.070313-0.011719-0.13281-0.039062-0.20703-0.17969-0.17188-0.3125 0.15234-0.52344 0.26953-0.98828 0.37109-1.4141 0.4375-1.7734 0.69922-2.8438 2.6719-4.2422 1.125-0.79688 2.2227-1.3047 3.1875-1.75 1.8555-0.85547 3.3242-1.5352 4.0508-3.7812 0.3125-0.96484 0.71094-2.7305 1.168-4.7734 1.2305-5.4844 3.0898-13.777 5.7773-17.656 0.60938-0.87891 1.1836-1.8203 1.707-2.7969 0.066406-0.12109 0.21484-0.16797 0.33984-0.10156 0.12109 0.066406 0.16797 0.21484 0.10156 0.33984-0.53125 0.99219-1.1172 1.9531-1.7383 2.8477-2.6328 3.8008-4.4805 12.031-5.7031 17.48-0.48047 2.1406-0.85938 3.832-1.1797 4.8203-0.79297 2.4531-2.4258 3.207-4.3164 4.0781-0.94531 0.4375-2.0234 0.93359-3.1094 1.7031-1.8203 1.293-2.0547 2.2383-2.4766 3.9531-0.10547 0.42969-0.22266 0.90234-0.37891 1.4375-0.023437 0.10938-0.12109 0.17969-0.23047 0.17969z"/>
 <path d="m62.645 78.734c-0.023437 0-0.046875-0.003906-0.070312-0.011719-0.13281-0.039062-0.21094-0.17578-0.17188-0.30859 0.79688-2.7734 1.7109-3.9766 4.0742-5.3594 3.2891-1.9297 5.207-4.0391 5.8555-6.4492 0.19922-0.74609 0.42969-2.0195 0.72266-3.6328 0.74219-4.0977 1.8633-10.285 3.6953-13.891 0.54297-1.0703 1.1055-2.0898 1.7148-3.125 0.070312-0.12109 0.22266-0.15625 0.34375-0.089843 0.11719 0.070312 0.15625 0.22266 0.089844 0.34375-0.60547 1.0234-1.1602 2.0391-1.6992 3.0977-1.8008 3.5391-2.9102 9.6875-3.6484 13.754-0.29297 1.6211-0.52734 2.9062-0.73047 3.6719-0.68359 2.543-2.6758 4.75-6.0859 6.75-2.2305 1.3047-3.0938 2.4414-3.8477 5.0664-0.035157 0.11328-0.13281 0.18359-0.24219 0.18359z"/>
 <path d="m65.031 78.73c-0.039062 0-0.078125-0.007813-0.11328-0.027344-0.12109-0.0625-0.17188-0.21484-0.10938-0.33594 0.71094-1.3945 1.7656-2.2109 3.1367-3.0078 2.5898-1.5117 5.3711-3.5586 6.3789-7.2852 0.39453-1.4648 0.67188-3.5195 0.96875-5.6992 0.47266-3.5078 1.0078-7.4805 2.1914-9.8516 0.28516-0.57031 0.62109-1.1797 0.99609-1.8086 0.070312-0.11719 0.22266-0.16016 0.34375-0.085938 0.11719 0.070313 0.15625 0.22656 0.085937 0.34375-0.37109 0.61719-0.69922 1.2148-0.98047 1.7734-1.1484 2.293-1.6797 6.2266-2.1445 9.6953-0.29688 2.1953-0.57422 4.2656-0.98047 5.7617-1.0547 3.9023-3.9336 6.0273-6.6094 7.5898-1.5703 0.91406-2.3672 1.6758-2.9414 2.8047-0.042968 0.085938-0.13281 0.13281-0.22266 0.13281z"/>
 <path d="m68.469 78.699c-0.066406 0-0.13672-0.027344-0.1875-0.085938-0.09375-0.10156-0.082031-0.26172 0.019531-0.35156 0.42188-0.375 0.98047-0.82812 1.6875-1.3984l0.64453-0.52344c3.7891-3.0703 5.3594-4.3438 5.5625-8.0078 0.12109-2.1836 1.0898-6.9805 2.2031-10.926 0.035156-0.13281 0.17187-0.21484 0.30859-0.17188 0.13281 0.035156 0.21094 0.17578 0.17188 0.30859-1.1055 3.9102-2.0664 8.6641-2.1875 10.816-0.21875 3.8867-1.9492 5.293-5.75 8.3672l-0.64453 0.52344c-0.69922 0.56641-1.2578 1.0156-1.668 1.3828-0.039062 0.046876-0.10156 0.066407-0.16016 0.066407z"/>
 <path d="m72.523 78.738c-0.054688 0-0.10547-0.015625-0.14844-0.050781-0.10938-0.082031-0.13281-0.23828-0.050781-0.35156 0.6875-0.91406 1.4375-1.6328 2.1172-2.0195 1.582-0.90625 3.6523-3.7852 3.8555-6.0039 0.015625-0.17188 0.03125-0.37891 0.050781-0.61328 0.011719-0.13672 0.10547-0.25391 0.26953-0.23047 0.13672 0.011719 0.23828 0.13281 0.23047 0.26953-0.019531 0.23828-0.035156 0.44922-0.050781 0.62109-0.21875 2.3984-2.3867 5.4062-4.1055 6.3906-0.62109 0.35547-1.3164 1.0234-1.9648 1.8867-0.050781 0.066406-0.125 0.10156-0.20312 0.10156z"/>
 <path d="m75.891 78.789c-0.050781 0-0.10156-0.015624-0.14453-0.046874-0.11328-0.078126-0.14062-0.23438-0.0625-0.34766 1.1523-1.6484 2.1055-2.4102 2.8047-2.8867 0.11328-0.078124 0.26953-0.046874 0.34766 0.066407 0.078124 0.11328 0.046874 0.26953-0.066407 0.34766-0.66406 0.45312-1.5664 1.1758-2.6758 2.7578-0.046875 0.074218-0.125 0.10937-0.20312 0.10937z"/>
 <path d="m21.902 53.176c-0.042969 0-0.085938-0.011719-0.125-0.03125-0.12109-0.066406-0.16016-0.22266-0.09375-0.33984 1.9414-3.3906 2.8711-6.1602 3.8555-9.0898 0.25781-0.76953 0.52344-1.5547 0.80859-2.3711 1.9062-5.4023 5.418-11.34 8.9648-12.41 1.2148-0.36719 2.6328-0.54297 4.1367-0.72656 2.8125-0.34375 5.7188-0.70312 7.7188-2.3672 1.6641-1.3867 3.5195-3.0469 4.9688-4.4375 0.097656-0.09375 0.25781-0.09375 0.35547 0.007812 0.097656 0.10156 0.09375 0.25781-0.007813 0.35547-1.4531 1.3984-3.3203 3.0664-4.9922 4.4609-2.1133 1.7617-5.0938 2.125-7.9805 2.4805-1.4805 0.18359-2.875 0.35547-4.0508 0.71094-3.3789 1.0234-6.7695 6.8125-8.6367 12.102-0.28906 0.8125-0.55078 1.5977-0.80859 2.3633-0.99219 2.9531-1.9297 5.7422-3.8945 9.1797-0.046875 0.070312-0.13281 0.11328-0.21875 0.11328z"/>
 <path d="m21.836 47.246c-0.035157 0-0.074219-0.007813-0.10938-0.023438-0.125-0.058594-0.17578-0.21094-0.11719-0.33594 1.4648-3.0312 2.6094-5.9492 3.6211-8.5273 0.39453-1.0117 0.76953-1.957 1.125-2.8242l0.09375-0.23047c1.8281-4.4414 3.2695-7.9453 7.1211-8.4805l0.91406-0.125c3.6484-0.49609 8.6445-1.1719 10.906-2.9648 0.69141-0.54688 1.5039-1.3125 2.4805-2.3398 0.097656-0.10156 0.25391-0.10547 0.35547-0.007812 0.10156 0.09375 0.10547 0.25391 0.007813 0.35547-0.99609 1.0469-1.8242 1.8242-2.5352 2.3867-2.3711 1.8789-7.4453 2.5664-11.148 3.0703l-0.91406 0.125c-3.5625 0.49609-4.8906 3.7188-6.7266 8.1758l-0.09375 0.23047c-0.35547 0.86328-0.72656 1.8086-1.1211 2.8164-1.0156 2.5859-2.1641 5.5156-3.6367 8.5625-0.039063 0.085937-0.12891 0.13672-0.22266 0.13672z"/>
 <path d="m21.848 41.621c-0.03125 0-0.066406-0.007813-0.10156-0.019532-0.12891-0.054687-0.18359-0.20312-0.12891-0.32812 1.207-2.7773 2.2891-5.6914 3.2383-8.2617 0.57422-1.5586 1.0742-2.9023 1.5-3.9375 1.7656-4.3047 5.8594-4.7695 9.5547-4.8672 1.8594-0.050781 4.3633-0.96484 6.8594-2.5117 0.11719-0.074218 0.27344-0.035156 0.34375 0.082032 0.074219 0.11719 0.035157 0.26953-0.082031 0.34375-2.5703 1.5938-5.1641 2.5352-7.1094 2.5859-3.7031 0.097657-7.4531 0.53125-9.1055 4.5586-0.42188 1.0273-0.91797 2.3711-1.4922 3.9219-0.90625 2.4492-2.0352 5.4961-3.25 8.2852-0.039063 0.09375-0.13281 0.14844-0.22656 0.14844z"/>
 <path d="m21.965 32.969c-0.035156 0-0.074219-0.007812-0.10938-0.023438-0.125-0.0625-0.17578-0.21094-0.11719-0.33594 0.86719-1.7891 1.5352-3.6367 1.9844-5.4883 1.0117-4.1562 3.7344-4.5977 7.7734-4.8008 1.2656-0.0625 2.7266-0.36719 4.3438-0.89453 0.12891-0.046875 0.27344 0.027344 0.31641 0.16016 0.042969 0.13281-0.027344 0.27344-0.16016 0.31641-1.6562 0.54688-3.1641 0.85547-4.4727 0.92188-4.4531 0.22266-6.4531 0.88672-7.3125 4.418-0.45703 1.8867-1.1406 3.7656-2.0234 5.5898-0.042969 0.082031-0.12891 0.13672-0.22266 0.13672z"/>
 <path d="m21.953 28.844c-0.03125 0-0.066406-0.007812-0.097656-0.019531-0.12891-0.054688-0.1875-0.19922-0.13281-0.32812 0.36719-0.86328 0.64062-1.8516 0.95703-3.0586 0.49609-1.8789 1.418-3.1992 2.8125-4.0352 0.11719-0.070313 0.27344-0.03125 0.34375 0.085937 0.070312 0.11719 0.03125 0.27344-0.085938 0.34375-1.2773 0.76562-2.1211 1.9883-2.5859 3.7344-0.32422 1.2227-0.60156 2.2305-0.98047 3.125-0.042969 0.09375-0.13281 0.15234-0.23047 0.15234z"/>
 <path d="m21.305 21.461" fill="none" stroke="#FFFFFF" stroke-linecap="round" stroke-linejoin="round" stroke-miterlimit="10" stroke-width=".5"/>
</svg>
