<svg xmlns="http://www.w3.org/2000/svg" width="19" height="19" viewBox="0 0 19 19">
  <g fill="#633442">
    <path d="M9.49202026,19 C4.2436282,19 0,14.7554598 0,9.50706777 C0,4.24271623 4.2436282,0 9.49202026,0 C14.7563718,0 19,4.24271623 19,9.50706777 C19,14.7554598 14.7563718,19 9.49202026,19 Z M9.49291079,18.0497264 C14.2299152,18.0497264 18.049705,14.2299366 18.049705,9.5061558 C18.049705,4.76915139 14.2299152,0.950273591 9.49291079,0.950273591 C4.77004193,0.950273591 0.95025216,4.76915139 0.95025216,9.5061558 C0.95025216,14.2299366 4.77004193,18.0497264 9.49291079,18.0497264 Z"/>
    <path d="M7.95532473,7.86744562 C8.05112044,6.66558175 8.86670916,5.90458239 10.0426129,5.90458239 C11.2264362,5.90458239 11.9629369,6.68845857 11.9629369,7.76865619 C11.9629369,8.59002037 11.4154042,9.1232819 10.4970001,9.75439623 C9.46785661,10.4467886 9.22880606,11.0852319 9.23670316,12.0895404 L9.23670316,12.8048095 L10.2140093,12.8048095 L10.2140093,12.23406 C10.2140093,11.389819 10.2983801,10.9562835 11.2616019,10.316927 C12.2679091,9.64738802 13,8.84890065 13,7.72297281 C13,6.17079167 11.8513199,5 10.079646,5 C8.1839358,5 7.0879706,6.25492308 7,7.86744562 L7.95532473,7.86744562 Z M9.81235938,15 C10.2122319,15 10.5154492,14.6762123 10.5154492,14.2682698 C10.5154492,13.8521086 10.2122319,13.5365397 9.81235938,13.5365397 C9.42038398,13.5365397 9.10926954,13.8521086 9.10926954,14.2682698 C9.10926954,14.6762123 9.42038398,15 9.81235938,15 Z"/>
  </g>
</svg>
