<svg xmlns="http://www.w3.org/2000/svg" width="19" height="14" viewBox="0 0 19 14">
  <path fill="#FFF" d="M3.69886165,0.000252481969 C3.07491034,-0.00498843366 2.41987414,0.0710071909 1.72602049,0.261437337 C1.63281443,0.28676869 1.5482401,0.344419433 1.48955881,0.422162179 C1.4308731,0.499904924 1.39894205,0.597737437 1.39980588,0.695578893 L1.40929882,2.08969778 L0.625681192,1.74465649 C0.559229781,1.71495789 0.485010462,1.70272827 0.411654979,1.70884196 C0.339163335,1.71495633 0.267533318,1.74028701 0.207122141,1.78046878 C0.145849336,1.82065055 0.0949315337,1.87655484 0.0604111768,1.94206796 C0.02589082,2.00670674 0.00690407137,2.08095435 0.00690407137,2.15432985 L0,13.5527679 C0,13.611293 0.0112190607,13.6698181 0.0336565195,13.7239737 C0.0560941991,13.7781315 0.0888890904,13.8279199 0.129449681,13.868976 C0.170010272,13.9100299 0.219202609,13.9432236 0.272709715,13.9659342 C0.32621682,13.9886447 0.384038694,14 0.441858359,14 L18.5581416,14 C18.6159635,14 18.6737854,13.9886445 18.7272903,13.9659342 C18.7807974,13.9432236 18.8299875,13.9100299 18.8705503,13.868976 C18.9111109,13.8279221 18.9439058,13.7781315 18.9663435,13.7239737 C18.9887812,13.6698158 19,13.6112907 19,13.5527679 L18.99137,2.15432985 C18.99137,2.08095659 18.9732467,2.00670674 18.9378629,1.94206796 C18.9033426,1.87742918 18.8524248,1.82152489 18.791152,1.78046878 C18.7298791,1.74028701 18.6591108,1.71495566 18.5866191,1.70884196 C18.5141275,1.70272737 18.4399081,1.71495633 18.3725929,1.74465649 L17.5906985,2.08882568 L17.6001915,0.695578893 C17.6010546,0.597746381 17.5682604,0.499913869 17.5104385,0.422162179 C17.451755,0.344419433 17.3671785,0.28676869 17.2739769,0.261437337 C14.1637203,-0.589358912 11.8534523,0.834456337 9.49833551,1.72282027 C7.66962927,1.03276004 5.86756723,0.0203556656 3.69803184,0.000274843686 L3.69886165,0.000252481969 Z M3.59012197,0.894721165 C5.52929336,0.880745092 7.16897164,1.78657353 9.05903022,2.51071301 L9.05903022,12.7534975 C7.52201824,11.8948523 5.60876198,11.1104256 2.35688913,11.5428118 L2.28525911,1.04331477 C2.73748131,0.943735812 3.1707035,0.89744035 3.59011756,0.893945213 L3.59012197,0.894721165 Z M15.4098922,0.894721165 C15.8293062,0.897341734 16.2625505,0.943637421 16.7156343,1.04409073 L16.6422788,11.5435877 C13.3939409,11.1112016 11.4798009,11.8947338 9.94278892,12.7525069 L9.94278892,2.50972239 C11.8319196,1.7855829 13.4708246,0.880626574 15.4108134,0.894602648 L15.4098922,0.894721165 Z M18.1085556,2.83739534 L18.1163226,13.1072375 L11.1751349,13.1072375 C12.5369713,12.4529784 14.1965775,12.0380791 17.00902,12.5027779 C17.0720205,12.51326 17.1367442,12.509766 17.1980193,12.4922959 C17.2592943,12.4748258 17.3171139,12.444254 17.3654424,12.4031979 C17.4137709,12.3621417 17.4534699,12.3097326 17.4802223,12.2512075 C17.5069748,12.1926824 17.5216468,12.1289157 17.5216468,12.064277 L17.5846473,3.06815819 L18.1085556,2.83739534 Z M0.890574835,2.83739534 L1.41528426,3.06888383 L1.47655706,12.0643318 C1.47742002,12.1289705 1.49122816,12.1927372 1.51798149,12.2512623 C1.54473482,12.3097874 1.5844329,12.3613244 1.6327614,12.4032526 C1.6810899,12.4443065 1.73891178,12.4757538 1.80018458,12.4923507 C1.86145739,12.5098208 1.92618333,12.5133148 1.98918381,12.5028327 C4.80427749,12.0381339 6.46213834,12.4530421 7.82395261,13.1072923 L0.884532392,13.1072923 L0.890574835,2.83739534 Z"/>
</svg>
